<?xml version="1.0" encoding="utf-8"?>
<!-- Generator: Adobe Illustrator 17.1.0, SVG Export Plug-In . SVG Version: 6.00 Build 0)  -->
<!DOCTYPE svg PUBLIC "-//W3C//DTD SVG 1.1 Tiny//EN" "http://www.w3.org/Graphics/SVG/1.1/DTD/svg11-tiny.dtd">
<svg version="1.1" baseProfile="tiny"
	 id="svg2" sodipodi:docname="drawing.svg" inkscape:export-ydpi="38.919998" inkscape:version="0.48.4 r9939" inkscape:export-xdpi="38.919998" inkscape:export-filename="/home/davem/Documents/that_podcast_with_proper_case.png" xmlns:rdf="http://www.w3.org/1999/02/22-rdf-syntax-ns#" xmlns:inkscape="http://www.inkscape.org/namespaces/inkscape" xmlns:sodipodi="http://sodipodi.sourceforge.net/DTD/sodipodi-0.dtd" xmlns:dc="http://purl.org/dc/elements/1.1/" xmlns:cc="http://creativecommons.org/ns#" xmlns:svg="http://www.w3.org/2000/svg"
	 xmlns="http://www.w3.org/2000/svg" xmlns:xlink="http://www.w3.org/1999/xlink" x="0px" y="0px" viewBox="0 0 370 370"
	 xml:space="preserve">
<sodipodi:namedview  width="1980px" inkscape:snap-grids="true" inkscape:window-maximized="0" inkscape:window-y="36" inkscape:window-x="0" inkscape:window-height="791" inkscape:window-width="1728" fit-margin-bottom="0" fit-margin-right="0" inkscape:pageshadow="2" inkscape:current-layer="layer1" inkscape:pageopacity="0.0" inkscape:document-units="px" showborder="true" bordercolor="#666666" inkscape:cx="71.669088" id="base" inkscape:cy="68.316344" pagecolor="#ffffff" borderlayer="false" showgrid="false" inkscape:zoom="0.98994949" borderopacity="1.0" fit-margin-left="0" fit-margin-top="0">
	<inkscape:grid  type="xygrid" snapvisiblegridlinesonly="true" visible="true" empspacing="5" enabled="true" id="grid3936">
		</inkscape:grid>
</sodipodi:namedview>
<g id="layer1" transform="translate(-638.57141,-306.64789)" inkscape:groupmode="layer" inkscape:label="Layer 1">
	
		<path id="path3934" sodipodi:ry="185" sodipodi:rx="185" sodipodi:cy="519.28571" sodipodi:cx="823.57141" sodipodi:type="arc" fill="#FFFFFF" d="
		M1008.6,491.6c0,102.2-82.8,185-185,185s-185-82.8-185-185s82.8-185,185-185S1008.6,389.5,1008.6,491.6z"/>
	<g id="g3569" transform="matrix(2.2263639,0,0,2.2263639,717.25278,380.32872)">
		<g id="Captions">
		</g>
		<g id="Your_Icon">
			<path id="path3557" inkscape:connector-curvature="0" d="M42.3,112.5c-13.9,0-25.3-4.3-28.9-10.4c0.7,7.1,13.4,12.7,28.9,12.7
				c15.5,0,28.2-5.6,28.9-12.7C67.6,108.1,56.2,112.5,42.3,112.5z"/>
			<path id="path3559" inkscape:connector-curvature="0" d="M47.3,83.6c0,0,0,9,0,9h-1.2v-17c-0.1,0-0.1,0-0.2,0
				c-1.5-0.1-3.1-0.2-4.7-0.5c-0.8-0.1-1.6-0.3-2.4-0.5c-0.1,0-0.2-0.1-0.4-0.1v18.2h-1.2v-9c-13.6,1.1-24,6.6-24,13.2
				c0,7.4,13,13.4,29,13.4s29-6,29-13.4C71.2,90.2,60.9,84.7,47.3,83.6L47.3,83.6z"/>
			<path id="path3561" inkscape:connector-curvature="0" d="M69.8-9.3c-4.5-2.6-8.9-4.3-15.8-5.2s-15.7,0.3-20.4,6.3
				c2.5,0,5.6,0.1,9.2,0.6c0,0,0,0,0,0.1l-1.4,4.5c-4.4-0.6-8-0.5-10.4-0.4c-0.1,0.4-0.3,0.7-0.4,1.1l-0.2,0.5
				c2.6,0.1,6.1,0.4,10.3,1.1l-1.4,4.5c-4.4-0.7-8-0.9-10.3-1l-0.5,1.7c2.5,0.3,5.9,0.8,10.1,1.6l-1.4,4.5C32.5,9.5,29,9.1,26.8,8.8
				l-0.5,1.7c2.3,0.5,5.7,1.2,10,2.1l-1.4,4.4c-4.4-1-7.8-1.7-10-2.1l-0.6,1.7c2.2,0.6,5.5,1.6,9.8,2.7l-1.4,4.4
				c-4.3-1.2-7.6-2.1-9.8-2.7l-0.5,1.7c2,0.8,5.2,2,9.6,3.3l-1.4,4.4c-4.3-1.3-7.5-2.5-9.6-3.3l-0.5,1.6c1.8,0.9,4.9,2.4,9.4,4
				l-1.4,4.4c-4.3-1.5-7.4-2.9-9.4-4l-0.5,1.5c1.5,1,4.5,2.9,9.2,4.8l-1.4,4.4c-4-1.6-6.9-3.2-8.9-4.4c-0.1,0.5-0.1,1.1-0.1,1.6
				c1.4,1.2,4.1,3.1,8.3,5l-1.4,4.5c-2.3-1-4.2-2-5.7-3c1.1,3.2,3.1,6,5.7,8.2c0.3,0.2,0.6,0.4,0.9,0.7c5.3,2.9,13.2,4.4,22.7,4.4
				c0.5,0,0.9,0,1.4,0l1.7-5c-0.4,0-0.9,0-1.4,0c-8.7-0.2-15.6-1.7-21.1-3.6c0-0.1,0.1-0.1,0.1-0.2l1.3-4.2
				c5.6,1.9,13.1,3.4,22.6,3.4l0.6-1.8c-9.2-0.5-16.6-2.1-22.5-4L32,41c5.8,1.9,13.3,3.4,22.6,3.9l0.6-1.8c-9.1-1-16.6-2.7-22.5-4.5
				l1.4-4.4c5.9,1.8,13.4,3.5,22.5,4.4c0,0,0.1,0,0.1,0l0.6-1.8c-8.9-1.5-16.5-3.3-22.5-5l1.4-4.4c5.9,1.7,13.4,3.4,22.1,4.9
				c0.2,0,0.3,0.1,0.5,0.1l0.7-1.9c-0.2,0-0.3,0-0.5-0.1c-8.5-2-16-4-22-5.6l1.4-4.4c6,1.6,13.3,3.5,21.7,5.5
				c0.5,0.1,0.9,0.4,1.2,0.8c1.2-1.3,2.9-2.2,4.7-2.2c0.7,0,1.4,0.1,2.1,0.4c1.6,0.6,2.9,1.7,3.6,3.2c0.5,1.1,0.7,2.2,0.6,3.4
				c-0.2-1.9-1.5-3.7-3.4-4.3c-2.7-0.9-5.7,0.5-6.6,3.2L51,63.1c-14.5,0.3-23.4-2.6-28.1-6.2c0,0.1,0.4,2.3,5,7.6
				c1.1,1.3,4.3,3.9,5.7,4.8c0.7,0.5,1.4,0.8,2.2,1.2c0.7,0.3,1.5,0.7,2.2,1c0.8,0.3,1.5,0.5,2.3,0.7c0.8,0.2,1.5,0.4,2.3,0.5
				c1.5,0.3,3.1,0.4,4.6,0.5c1.5,0,3,0,4.5-0.1c1.5-0.1,2.9-0.3,4.4-0.5l0,0l2.9-0.5l1-2.9l2-5.7l0.9-2.6c2.8-2.2,5.1-5.3,6.3-9
				l12.2-38.1C84.5,4.1,78.7-4.1,69.8-9.3z M63.4,22.7c-0.3,1-1.3,1.6-2.3,1.6c-0.2,0-0.4,0-0.6-0.1c-8.1-2.6-15.3-4.5-21.3-6
				l1.4-4.4c6,1.5,13.3,3.5,21.3,6C63.2,20.2,63.8,21.5,63.4,22.7z M65,16.5c-0.4,0.9-1.3,1.5-2.2,1.4c-0.3,0-0.5-0.1-0.8-0.2
				c-7.6-3.1-14.6-5.1-20.5-6.5l1.4-4.4c6,1.4,13.1,3.5,20.9,6.6C64.9,14,65.5,15.3,65,16.5z M66.5,10.4c-0.4,0.8-1.3,1.3-2.1,1.3
				c-0.3,0-0.7-0.1-1-0.2c-7.1-3.5-14-5.7-19.8-6.9L45,0c6.1,1.4,13.1,3.6,20.4,7.2C66.6,7.9,67.1,9.2,66.5,10.4z M68.1,4.2
				c-0.4,0.7-1.2,1.1-2,1.1c-0.4,0-0.8-0.1-1.1-0.3c-6.7-4-13.3-6.2-19.1-7.4L47-6.2c0.1-0.2,0.1-0.4,0.1-0.7
				c6.1,1.3,13.1,3.7,20.1,7.9C68.4,1.7,68.7,3.1,68.1,4.2L68.1,4.2z"/>
		</g>
	</g>
</g>
</svg>
