<?xml version="1.0" encoding="UTF-8" standalone="no"?>
<!-- Created with Inkscape (http://www.inkscape.org/) -->

<svg
   xmlns:dc="http://purl.org/dc/elements/1.1/"
   xmlns:cc="http://creativecommons.org/ns#"
   xmlns:rdf="http://www.w3.org/1999/02/22-rdf-syntax-ns#"
   xmlns:svg="http://www.w3.org/2000/svg"
   xmlns="http://www.w3.org/2000/svg"
   xmlns:xlink="http://www.w3.org/1999/xlink"
   version="1.1"
   width="370"
   height="370"
   id="svg2">
  <defs
     id="defs4" />
  <metadata
     id="metadata7">
    <rdf:RDF>
      <cc:Work
         rdf:about="">
        <dc:format>image/svg+xml</dc:format>
        <dc:type
           rdf:resource="http://purl.org/dc/dcmitype/StillImage" />
        <dc:title></dc:title>
      </cc:Work>
    </rdf:RDF>
  </metadata>
  <g
     transform="translate(-638.57141,-306.64789)"
     id="layer1"
     style="display:inline">
    <path
       d="m 1008.5714,519.28571 a 185,185 0 1 1 -369.99999,0 185,185 0 1 1 369.99999,0 z"
       transform="translate(0,-27.637818)"
       id="path3934"
       style="fill:#ffffff;fill-opacity:1;stroke:none" />
    <g
       transform="translate(894.28619,441.64789)"
       id="g3364">
      <g
         id="Capa_33"
         style="display:none" />
      <g
         id="Capa_26">
        <g
           id="g2988">
          <g
             id="g2990">
            <circle
               cx="87.790001"
               cy="67.651001"
               r="2.089"
               id="circle2992" />
          </g>
          <g
             id="g2994">
            <circle
               cx="82.752998"
               cy="67.651001"
               r="2.089"
               id="circle2996" />
          </g>
          <g
             id="g2998">
            <circle
               cx="77.712997"
               cy="57.563"
               r="2.089"
               id="circle3000" />
            <circle
               cx="77.712997"
               cy="62.608002"
               r="2.0869999"
               id="circle3002" />
            <circle
               cx="77.712997"
               cy="67.651001"
               r="2.089"
               id="circle3004" />
          </g>
          <g
             id="g3006">
            <circle
               cx="72.675003"
               cy="52.521999"
               r="2.0880001"
               id="circle3008" />
            <circle
               cx="72.675003"
               cy="57.563"
               r="2.089"
               id="circle3010" />
            <circle
               cx="72.675003"
               cy="62.608002"
               r="2.0869999"
               id="circle3012" />
            <circle
               cx="72.675003"
               cy="67.651001"
               r="2.089"
               id="circle3014" />
          </g>
          <g
             id="g3016">
            <circle
               cx="67.635002"
               cy="42.435001"
               r="2.0869999"
               id="circle3018" />
            <circle
               cx="67.635002"
               cy="47.478001"
               r="2.0880001"
               id="circle3020" />
            <circle
               cx="67.635002"
               cy="52.521999"
               r="2.0880001"
               id="circle3022" />
            <circle
               cx="67.635002"
               cy="57.563"
               r="2.089"
               id="circle3024" />
            <circle
               cx="67.635002"
               cy="62.608002"
               r="2.0869999"
               id="circle3026" />
            <circle
               cx="67.635002"
               cy="67.651001"
               r="2.089"
               id="circle3028" />
          </g>
          <g
             id="g3030">
            <path
               d="m 62.596,14.263 c -1.152,0 -2.084,-0.938 -2.084,-2.09 0,-1.152 0.932,-2.088 2.084,-2.088 1.155,0 2.09,0.936 2.09,2.088 0,1.152 -0.935,2.09 -2.09,2.09 z"
               id="path3032" />
            <path
               d="m 62.596,19.308 c -1.152,0 -2.084,-0.938 -2.084,-2.09 0,-1.155 0.932,-2.088 2.084,-2.088 1.155,0 2.09,0.933 2.09,2.088 0,1.152 -0.935,2.09 -2.09,2.09 z"
               id="path3034" />
            <path
               d="m 62.596,39.48 c -1.152,0 -2.084,-0.936 -2.084,-2.088 0,-1.155 0.932,-2.088 2.084,-2.088 1.155,0 2.09,0.933 2.09,2.088 0,1.152 -0.935,2.088 -2.09,2.088 z"
               id="path3036" />
            <path
               d="m 62.596,44.521 c -1.152,0 -2.084,-0.933 -2.084,-2.085 0,-1.155 0.932,-2.088 2.084,-2.088 1.155,0 2.09,0.933 2.09,2.088 0,1.152 -0.935,2.085 -2.09,2.085 z"
               id="path3038" />
            <path
               d="m 62.596,49.566 c -1.152,0 -2.084,-0.935 -2.084,-2.088 0,-1.153 0.932,-2.088 2.084,-2.088 1.155,0 2.09,0.935 2.09,2.088 0,1.153 -0.935,2.088 -2.09,2.088 z"
               id="path3040" />
            <path
               d="m 62.596,54.609 c -1.152,0 -2.084,-0.936 -2.084,-2.09 0,-1.151 0.932,-2.085 2.084,-2.085 1.155,0 2.09,0.934 2.09,2.085 0,1.156 -0.935,2.09 -2.09,2.09 z"
               id="path3042" />
            <path
               d="m 62.596,59.652 c -1.152,0 -2.084,-0.935 -2.084,-2.088 0,-1.154 0.932,-2.09 2.084,-2.09 1.155,0 2.09,0.936 2.09,2.09 0,1.154 -0.935,2.088 -2.09,2.088 z"
               id="path3044" />
            <path
               d="m 62.596,64.695 c -1.152,0 -2.084,-0.935 -2.084,-2.088 0,-1.152 0.932,-2.088 2.084,-2.088 1.155,0 2.09,0.936 2.09,2.088 0,1.155 -0.935,2.088 -2.09,2.088 z"
               id="path3046" />
            <path
               d="m 62.596,69.74 c -1.152,0 -2.084,-0.938 -2.084,-2.09 0,-1.151 0.932,-2.09 2.084,-2.09 1.155,0 2.09,0.938 2.09,2.09 0,1.153 -0.935,2.09 -2.09,2.09 z"
               id="path3048" />
          </g>
          <g
             id="g3050">
            <circle
               cx="57.558998"
               cy="2.0880001"
               r="2.0880001"
               id="circle3052" />
            <circle
               cx="57.558998"
               cy="12.174"
               r="2.089"
               id="circle3054" />
            <circle
               cx="57.558998"
               cy="17.219"
               r="2.089"
               id="circle3056" />
            <path
               d="m 57.559,24.352 c -1.154,0 -2.088,-0.94 -2.088,-2.09 0,-1.155 0.934,-2.088 2.088,-2.088 1.152,0 2.088,0.933 2.088,2.088 -10e-4,1.15 -0.936,2.09 -2.088,2.09 z"
               id="path3058" />
            <circle
               cx="57.558998"
               cy="27.304001"
               r="2.0869999"
               id="circle3060" />
            <circle
               cx="57.558998"
               cy="32.348"
               r="2.0880001"
               id="circle3062" />
            <circle
               cx="57.558998"
               cy="37.391998"
               r="2.0880001"
               id="circle3064" />
            <circle
               cx="57.558998"
               cy="42.435001"
               r="2.0869999"
               id="circle3066" />
            <circle
               cx="57.558998"
               cy="47.478001"
               r="2.0880001"
               id="circle3068" />
            <circle
               cx="57.558998"
               cy="52.521999"
               r="2.0880001"
               id="circle3070" />
            <circle
               cx="57.558998"
               cy="57.563"
               r="2.089"
               id="circle3072" />
            <circle
               cx="57.558998"
               cy="62.608002"
               r="2.0869999"
               id="circle3074" />
            <circle
               cx="57.558998"
               cy="67.651001"
               r="2.089"
               id="circle3076" />
          </g>
          <g
             id="g3078">
            <path
               d="M 52.52,4.175 C 51.369,4.175 50.433,3.239 50.433,2.087 50.432,0.935 51.367,0 52.52,0 53.67,0 54.608,0.935 54.608,2.087 54.607,3.239 53.67,4.175 52.52,4.175 z"
               id="path3080" />
            <path
               d="m 52.52,9.218 c -1.151,0 -2.087,-0.935 -2.087,-2.087 0,-1.152 0.936,-2.09 2.087,-2.09 1.15,0 2.088,0.938 2.088,2.09 -10e-4,1.152 -0.938,2.087 -2.088,2.087 z"
               id="path3082" />
            <path
               d="m 52.52,14.263 c -1.151,0 -2.087,-0.938 -2.087,-2.09 0,-1.152 0.936,-2.088 2.087,-2.088 1.15,0 2.088,0.936 2.088,2.088 -10e-4,1.152 -0.938,2.09 -2.088,2.09 z"
               id="path3084" />
            <path
               d="m 52.52,19.308 c -1.151,0 -2.087,-0.938 -2.087,-2.09 0,-1.155 0.936,-2.088 2.087,-2.088 1.15,0 2.088,0.933 2.088,2.088 -10e-4,1.152 -0.938,2.09 -2.088,2.09 z"
               id="path3086" />
            <path
               d="m 52.52,24.352 c -1.151,0 -2.087,-0.94 -2.087,-2.09 0,-1.155 0.936,-2.088 2.087,-2.088 1.15,0 2.088,0.933 2.088,2.088 -10e-4,1.15 -0.938,2.09 -2.088,2.09 z"
               id="path3088" />
            <path
               d="m 52.52,29.391 c -1.151,0 -2.087,-0.935 -2.087,-2.087 0,-1.153 0.936,-2.087 2.087,-2.087 1.15,0 2.088,0.934 2.088,2.087 -10e-4,1.152 -0.938,2.087 -2.088,2.087 z"
               id="path3090" />
            <path
               d="m 52.52,34.436 c -1.151,0 -2.087,-0.936 -2.087,-2.088 0,-1.152 0.936,-2.087 2.087,-2.087 1.15,0 2.088,0.935 2.088,2.087 -10e-4,1.152 -0.938,2.088 -2.088,2.088 z"
               id="path3092" />
            <path
               d="m 52.52,39.48 c -1.151,0 -2.087,-0.936 -2.087,-2.088 0,-1.155 0.936,-2.088 2.087,-2.088 1.15,0 2.088,0.933 2.088,2.088 -10e-4,1.152 -0.938,2.088 -2.088,2.088 z"
               id="path3094" />
            <path
               d="m 52.52,44.521 c -1.151,0 -2.087,-0.933 -2.087,-2.085 0,-1.155 0.936,-2.088 2.087,-2.088 1.15,0 2.088,0.933 2.088,2.088 -10e-4,1.152 -0.938,2.085 -2.088,2.085 z"
               id="path3096" />
            <path
               d="m 52.52,54.609 c -1.151,0 -2.087,-0.936 -2.087,-2.09 0,-1.151 0.936,-2.085 2.087,-2.085 1.15,0 2.088,0.934 2.088,2.085 -10e-4,1.156 -0.938,2.09 -2.088,2.09 z"
               id="path3098" />
            <path
               d="m 52.52,64.695 c -1.151,0 -2.087,-0.935 -2.087,-2.088 0,-1.152 0.936,-2.088 2.087,-2.088 1.15,0 2.088,0.936 2.088,2.088 -10e-4,1.155 -0.938,2.088 -2.088,2.088 z"
               id="path3100" />
            <path
               d="m 52.52,69.74 c -1.151,0 -2.087,-0.938 -2.087,-2.09 0,-1.151 0.936,-2.09 2.087,-2.09 1.15,0 2.088,0.938 2.088,2.09 -10e-4,1.153 -0.938,2.09 -2.088,2.09 z"
               id="path3102" />
          </g>
          <g
             id="g3104">
            <circle
               cx="47.481998"
               cy="2.0880001"
               r="2.0880001"
               id="circle3106" />
            <circle
               cx="47.481998"
               cy="7.1300001"
               r="2.0880001"
               id="circle3108" />
            <circle
               cx="47.481998"
               cy="12.174"
               r="2.089"
               id="circle3110" />
            <circle
               cx="47.481998"
               cy="17.219"
               r="2.089"
               id="circle3112" />
            <path
               d="m 47.482,24.352 c -1.152,0 -2.088,-0.94 -2.088,-2.09 0,-1.155 0.936,-2.088 2.088,-2.088 1.152,0 2.088,0.933 2.088,2.088 0,1.15 -0.936,2.09 -2.088,2.09 z"
               id="path3114" />
            <circle
               cx="47.481998"
               cy="27.304001"
               r="2.0869999"
               id="circle3116" />
            <circle
               cx="47.481998"
               cy="32.348"
               r="2.0880001"
               id="circle3118" />
            <circle
               cx="47.481998"
               cy="37.391998"
               r="2.0880001"
               id="circle3120" />
            <circle
               cx="47.481998"
               cy="42.435001"
               r="2.0869999"
               id="circle3122" />
            <circle
               cx="47.481998"
               cy="47.478001"
               r="2.0880001"
               id="circle3124" />
            <circle
               cx="47.481998"
               cy="62.608002"
               r="2.0869999"
               id="circle3126" />
            <circle
               cx="47.481998"
               cy="67.651001"
               r="2.089"
               id="circle3128" />
          </g>
          <g
             id="g3130">
            <circle
               cx="87.790001"
               cy="72.695"
               r="2.0880001"
               id="circle3132" />
          </g>
          <g
             id="g3134">
            <circle
               cx="82.752998"
               cy="72.695"
               r="2.0880001"
               id="circle3136" />
            <circle
               cx="82.752998"
               cy="77.737999"
               r="2.089"
               id="circle3138" />
            <circle
               cx="82.752998"
               cy="87.825996"
               r="2.0880001"
               id="circle3140" />
          </g>
          <g
             id="g3142">
            <circle
               cx="77.712997"
               cy="72.695"
               r="2.0880001"
               id="circle3144" />
            <circle
               cx="77.712997"
               cy="77.737999"
               r="2.089"
               id="circle3146" />
            <circle
               cx="77.712997"
               cy="82.781998"
               r="2.0869999"
               id="circle3148" />
            <circle
               cx="77.712997"
               cy="87.825996"
               r="2.0880001"
               id="circle3150" />
          </g>
          <g
             id="g3152">
            <circle
               cx="72.675003"
               cy="72.695"
               r="2.0880001"
               id="circle3154" />
            <circle
               cx="72.675003"
               cy="77.737999"
               r="2.089"
               id="circle3156" />
            <circle
               cx="72.675003"
               cy="82.781998"
               r="2.0869999"
               id="circle3158" />
            <circle
               cx="72.675003"
               cy="87.825996"
               r="2.0880001"
               id="circle3160" />
          </g>
          <g
             id="g3162">
            <circle
               cx="67.635002"
               cy="72.695"
               r="2.0880001"
               id="circle3164" />
            <circle
               cx="67.635002"
               cy="77.737999"
               r="2.089"
               id="circle3166" />
            <circle
               cx="67.635002"
               cy="82.781998"
               r="2.0869999"
               id="circle3168" />
            <circle
               cx="67.635002"
               cy="87.825996"
               r="2.0880001"
               id="circle3170" />
          </g>
          <g
             id="g3172">
            <path
               d="m 62.596,74.783 c -1.152,0 -2.084,-0.936 -2.084,-2.09 0,-1.152 0.932,-2.088 2.084,-2.088 1.155,0 2.09,0.936 2.09,2.088 0,1.157 -0.935,2.09 -2.09,2.09 z"
               id="path3174" />
            <path
               d="m 62.596,79.827 c -1.152,0 -2.084,-0.935 -2.084,-2.091 0,-1.15 0.932,-2.088 2.084,-2.088 1.155,0 2.09,0.938 2.09,2.088 0,1.157 -0.935,2.091 -2.09,2.091 z"
               id="path3176" />
            <path
               d="m 62.596,84.869 c -1.152,0 -2.084,-0.936 -2.084,-2.09 0,-1.152 0.932,-2.086 2.084,-2.086 1.155,0 2.09,0.934 2.09,2.086 0,1.157 -0.935,2.09 -2.09,2.09 z"
               id="path3178" />
            <path
               d="m 62.596,89.914 c -1.152,0 -2.084,-0.938 -2.084,-2.09 0,-1.152 0.932,-2.088 2.084,-2.088 1.155,0 2.09,0.936 2.09,2.088 0,1.152 -0.935,2.09 -2.09,2.09 z"
               id="path3180" />
            <path
               d="m 62.596,94.955 c -1.152,0 -2.084,-0.936 -2.084,-2.087 0,-1.153 0.932,-2.087 2.084,-2.087 1.155,0 2.09,0.934 2.09,2.087 0,1.153 -0.935,2.087 -2.09,2.087 z"
               id="path3182" />
          </g>
          <g
             id="g3184">
            <circle
               cx="57.558998"
               cy="72.695"
               r="2.0880001"
               id="circle3186" />
            <circle
               cx="57.558998"
               cy="77.737999"
               r="2.089"
               id="circle3188" />
            <circle
               cx="57.558998"
               cy="82.781998"
               r="2.0869999"
               id="circle3190" />
            <circle
               cx="57.558998"
               cy="87.825996"
               r="2.0880001"
               id="circle3192" />
          </g>
          <g
             id="g3194">
            <path
               d="m 52.52,74.783 c -1.151,0 -2.087,-0.936 -2.087,-2.09 0,-1.152 0.936,-2.088 2.087,-2.088 1.15,0 2.088,0.936 2.088,2.088 -10e-4,1.157 -0.938,2.09 -2.088,2.09 z"
               id="path3196" />
            <path
               d="m 52.52,79.827 c -1.151,0 -2.087,-0.935 -2.087,-2.091 0,-1.15 0.936,-2.088 2.087,-2.088 1.15,0 2.088,0.938 2.088,2.088 -10e-4,1.157 -0.938,2.091 -2.088,2.091 z"
               id="path3198" />
            <path
               d="m 52.52,84.869 c -1.151,0 -2.087,-0.936 -2.087,-2.09 0,-1.152 0.936,-2.086 2.087,-2.086 1.15,0 2.088,0.934 2.088,2.086 -10e-4,1.157 -0.938,2.09 -2.088,2.09 z"
               id="path3200" />
            <path
               d="m 52.52,89.914 c -1.151,0 -2.087,-0.938 -2.087,-2.09 0,-1.152 0.936,-2.088 2.087,-2.088 1.15,0 2.088,0.936 2.088,2.088 0,1.152 -0.938,2.09 -2.088,2.09 z"
               id="path3202" />
            <path
               d="m 52.52,94.955 c -1.151,0 -2.087,-0.936 -2.087,-2.087 0,-1.153 0.936,-2.087 2.087,-2.087 1.15,0 2.088,0.934 2.088,2.087 0,1.153 -0.938,2.087 -2.088,2.087 z"
               id="path3204" />
          </g>
          <g
             id="g3206">
            <circle
               cx="47.481998"
               cy="77.737999"
               r="2.089"
               id="circle3208" />
            <circle
               cx="47.481998"
               cy="87.825996"
               r="2.0880001"
               id="circle3210" />
            <circle
               cx="47.481998"
               cy="92.867996"
               r="2.0869999"
               id="circle3212" />
          </g>
          <g
             id="g3214">
            <circle
               cx="42.441002"
               cy="2.0880001"
               r="2.0880001"
               id="circle3216" />
            <circle
               cx="42.441002"
               cy="7.1300001"
               r="2.0880001"
               id="circle3218" />
            <circle
               cx="42.441002"
               cy="12.174"
               r="2.089"
               id="circle3220" />
            <circle
               cx="42.441002"
               cy="17.219"
               r="2.089"
               id="circle3222" />
            <path
               d="m 42.441,24.352 c -1.152,0 -2.085,-0.94 -2.085,-2.09 0,-1.155 0.933,-2.088 2.085,-2.088 1.152,0 2.088,0.933 2.088,2.088 10e-4,1.15 -0.935,2.09 -2.088,2.09 z"
               id="path3224" />
            <circle
               cx="42.441002"
               cy="27.304001"
               r="2.0869999"
               id="circle3226" />
            <circle
               cx="42.441002"
               cy="32.348"
               r="2.0880001"
               id="circle3228" />
            <circle
               cx="42.441002"
               cy="47.478001"
               r="2.0880001"
               id="circle3230" />
          </g>
          <g
             id="g3232">
            <circle
               cx="37.403999"
               cy="12.174"
               r="2.089"
               id="circle3234" />
            <circle
               cx="37.403999"
               cy="17.219"
               r="2.089"
               id="circle3236" />
            <path
               d="m 37.404,24.352 c -1.152,0 -2.088,-0.94 -2.088,-2.09 0,-1.155 0.936,-2.088 2.088,-2.088 1.152,0 2.087,0.933 2.087,2.088 0,1.15 -0.934,2.09 -2.087,2.09 z"
               id="path3238" />
            <circle
               cx="37.403999"
               cy="27.304001"
               r="2.0869999"
               id="circle3240" />
            <circle
               cx="37.403999"
               cy="37.391998"
               r="2.0880001"
               id="circle3242" />
            <circle
               cx="37.403999"
               cy="47.478001"
               r="2.0880001"
               id="circle3244" />
            <circle
               cx="37.403999"
               cy="52.521999"
               r="2.0880001"
               id="circle3246" />
            <circle
               cx="37.403999"
               cy="62.608002"
               r="2.0869999"
               id="circle3248" />
            <circle
               cx="37.403999"
               cy="67.651001"
               r="2.089"
               id="circle3250" />
          </g>
          <g
             id="g3252">
            <circle
               cx="32.363998"
               cy="2.0880001"
               r="2.0880001"
               id="circle3254" />
            <circle
               cx="32.363998"
               cy="7.1300001"
               r="2.0880001"
               id="circle3256" />
            <circle
               cx="32.363998"
               cy="17.219"
               r="2.089"
               id="circle3258" />
            <circle
               cx="32.363998"
               cy="42.435001"
               r="2.0869999"
               id="circle3260" />
            <circle
               cx="32.363998"
               cy="47.478001"
               r="2.0880001"
               id="circle3262" />
            <circle
               cx="32.363998"
               cy="52.521999"
               r="2.0880001"
               id="circle3264" />
            <circle
               cx="32.363998"
               cy="57.563"
               r="2.089"
               id="circle3266" />
            <circle
               cx="32.363998"
               cy="62.608002"
               r="2.0869999"
               id="circle3268" />
            <circle
               cx="32.363998"
               cy="67.651001"
               r="2.089"
               id="circle3270" />
          </g>
          <g
             id="g3272">
            <circle
               cx="27.326"
               cy="42.435001"
               r="2.0869999"
               id="circle3274" />
            <circle
               cx="27.326"
               cy="47.478001"
               r="2.0880001"
               id="circle3276" />
            <circle
               cx="27.326"
               cy="52.521999"
               r="2.0880001"
               id="circle3278" />
            <circle
               cx="27.326"
               cy="57.563"
               r="2.089"
               id="circle3280" />
            <circle
               cx="27.326"
               cy="62.608002"
               r="2.0869999"
               id="circle3282" />
            <circle
               cx="27.326"
               cy="67.651001"
               r="2.089"
               id="circle3284" />
          </g>
          <g
             id="g3286">
            <circle
               cx="22.285999"
               cy="42.435001"
               r="2.0869999"
               id="circle3288" />
            <circle
               cx="22.285999"
               cy="47.478001"
               r="2.0880001"
               id="circle3290" />
            <circle
               cx="22.285999"
               cy="52.521999"
               r="2.0880001"
               id="circle3292" />
            <circle
               cx="22.285999"
               cy="57.563"
               r="2.089"
               id="circle3294" />
            <circle
               cx="22.285999"
               cy="62.608002"
               r="2.0869999"
               id="circle3296" />
            <circle
               cx="22.285999"
               cy="67.651001"
               r="2.089"
               id="circle3298" />
          </g>
          <g
             id="g3300">
            <circle
               cx="17.249001"
               cy="52.521999"
               r="2.0880001"
               id="circle3302" />
            <circle
               cx="17.249001"
               cy="57.563"
               r="2.089"
               id="circle3304" />
            <circle
               cx="17.249001"
               cy="62.608002"
               r="2.0869999"
               id="circle3306" />
            <circle
               cx="17.249001"
               cy="67.651001"
               r="2.089"
               id="circle3308" />
          </g>
          <g
             id="g3310">
            <circle
               cx="12.209"
               cy="52.521999"
               r="2.0880001"
               id="circle3312" />
            <circle
               cx="12.209"
               cy="57.563"
               r="2.089"
               id="circle3314" />
            <circle
               cx="12.209"
               cy="62.608002"
               r="2.0869999"
               id="circle3316" />
          </g>
          <g
             id="g3318">
            <circle
               cx="42.441002"
               cy="77.737999"
               r="2.089"
               id="circle3320" />
            <circle
               cx="42.441002"
               cy="82.781998"
               r="2.0869999"
               id="circle3322" />
            <circle
               cx="42.441002"
               cy="92.867996"
               r="2.0869999"
               id="circle3324" />
            <circle
               cx="42.441002"
               cy="97.912003"
               r="2.0880001"
               id="circle3326" />
          </g>
          <g
             id="g3328">
            <circle
               cx="32.363998"
               cy="72.695"
               r="2.0880001"
               id="circle3330" />
          </g>
          <g
             id="g3332">
            <circle
               cx="27.326"
               cy="72.695"
               r="2.0880001"
               id="circle3334" />
          </g>
          <g
             id="g3336">
            <circle
               cx="22.285999"
               cy="72.695"
               r="2.0880001"
               id="circle3338" />
            <circle
               cx="22.285999"
               cy="77.737999"
               r="2.089"
               id="circle3340" />
          </g>
          <g
             id="g3342">
            <circle
               cx="17.249001"
               cy="72.695"
               r="2.0880001"
               id="circle3344" />
            <circle
               cx="17.249001"
               cy="77.737999"
               r="2.089"
               id="circle3346" />
            <circle
               cx="17.249001"
               cy="82.781998"
               r="2.0869999"
               id="circle3348" />
          </g>
          <g
             id="g3350">
            <circle
               cx="12.209"
               cy="72.695"
               r="2.0880001"
               id="circle3352" />
            <circle
               cx="12.209"
               cy="77.737999"
               r="2.089"
               id="circle3354" />
            <circle
               cx="12.209"
               cy="82.781998"
               r="2.0869999"
               id="circle3356" />
          </g>
        </g>
      </g>
    </g>
    <g
       transform="matrix(2.2263639,0,0,2.2263639,717.25278,380.32872)"
       id="g3569">
      <g
         id="Captions" />
      <g
         id="Your_Icon">
        <path
           d="m 45.817,97.742 c -10.633,0 -19.361,-3.311 -22.113,-7.956 0.567,5.413 10.25,9.722 22.113,9.722 11.862,0 21.545,-4.309 22.112,-9.722 -2.752,4.646 -11.481,7.956 -22.112,7.956 z"
           id="path3557" />
        <path
           d="m 49.641,75.685 c 0,0 0.002,6.86 0.002,6.869 H 48.758 V 69.53 c -0.047,-0.001 -0.089,-0.001 -0.139,-0.001 -1.14,-0.06 -2.37,-0.146 -3.602,-0.375 -0.621,-0.097 -1.226,-0.242 -1.865,-0.401 -0.094,-0.025 -0.185,-0.054 -0.278,-0.079 v 13.88 h -0.882 v -6.869 c -10.404,0.837 -18.315,5.024 -18.315,10.069 0,5.646 9.913,10.224 22.14,10.224 12.227,0 22.139,-4.578 22.139,-10.224 0,-5.045 -7.912,-9.233 -18.315,-10.069 z"
           id="path3559" />
        <path
           d="M 66.815,4.661 C 63.395,2.675 60.023,1.339 54.707,0.685 49.391,0.031 42.678,0.908 39.09,5.483 41.023,5.475 43.401,5.587 46.096,5.967 46.091,5.982 46.082,5.995 46.078,6.011 L 44.99,9.418 c -3.332,-0.424 -6.093,-0.42 -7.957,-0.326 -0.105,0.272 -0.22,0.54 -0.311,0.821 l -0.125,0.393 c 1.989,0.077 4.666,0.292 7.844,0.83 l -1.093,3.427 c -3.354,-0.54 -6.078,-0.705 -7.881,-0.744 l -0.406,1.263 c 1.894,0.209 4.528,0.576 7.733,1.217 l -1.086,3.404 c -3.343,-0.654 -6.007,-0.998 -7.755,-1.177 l -0.42,1.304 c 1.787,0.346 4.378,0.879 7.613,1.634 l -1.077,3.374 c -3.326,-0.772 -5.928,-1.3 -7.625,-1.622 l -0.422,1.31 c 1.661,0.475 4.195,1.187 7.484,2.075 l -1.075,3.367 c -3.303,-0.893 -5.841,-1.607 -7.49,-2.079 l -0.414,1.288 c 1.515,0.598 3.991,1.514 7.343,2.551 l -1.078,3.377 C 33.506,34.086 31.039,33.179 29.44,32.551 l -0.394,1.227 c 1.345,0.706 3.751,1.855 7.189,3.069 l -1.08,3.384 c -3.259,-1.145 -5.661,-2.248 -7.208,-3.038 l -0.361,1.124 c 1.144,0.786 3.462,2.21 7.021,3.635 l -1.084,3.397 c -3.033,-1.197 -5.275,-2.418 -6.775,-3.352 -0.041,0.416 -0.067,0.83 -0.072,1.243 1.108,0.91 3.17,2.386 6.306,3.805 l -1.091,3.418 c -1.729,-0.76 -3.179,-1.549 -4.378,-2.291 0.861,2.412 2.354,4.581 4.361,6.238 0.217,0.179 0.45,0.343 0.677,0.51 4.043,2.191 10.08,3.385 17.341,3.385 0.358,0 0.721,-0.003 1.09,-0.009 l 1.333,-3.838 c -0.341,-0.003 -0.697,0.004 -1.032,-0.005 -6.633,-0.174 -11.958,-1.296 -16.122,-2.72 0.023,-0.054 0.061,-0.098 0.079,-0.155 l 1.031,-3.228 c 4.294,1.482 10.002,2.632 17.271,2.584 l 0.476,-1.368 C 47.002,49.165 41.298,47.957 36.851,46.532 l 1.081,-3.386 c 4.403,1.417 10.148,2.635 17.292,2.954 l 0.478,-1.375 C 48.774,43.967 43.037,42.68 38.515,41.32 l 1.079,-3.381 c 4.493,1.352 10.24,2.644 17.208,3.36 0.029,0.002 0.057,0.013 0.086,0.017 l 0.479,-1.378 C 50.54,38.778 44.777,37.401 40.179,36.105 l 1.079,-3.377 c 4.53,1.276 10.204,2.633 16.887,3.762 0.135,0.023 0.261,0.063 0.383,0.114 L 59.026,35.17 C 58.907,35.167 58.788,35.152 58.67,35.124 52.155,33.559 46.469,32.103 41.848,30.88 l 1.074,-3.368 c 4.566,1.207 10.166,2.639 16.571,4.178 0.383,0.092 0.702,0.306 0.937,0.586 0.903,-1.022 2.208,-1.652 3.629,-1.652 0.542,0 1.079,0.091 1.595,0.271 1.225,0.426 2.21,1.303 2.775,2.471 0.393,0.81 0.533,1.693 0.449,2.567 -0.163,-1.475 -1.137,-2.802 -2.632,-3.321 -2.072,-0.721 -4.336,0.375 -5.057,2.446 L 52.495,60.05 c -11.052,0.261 -17.858,-1.988 -21.504,-4.756 0.007,0.086 0.279,1.784 3.792,5.819 0.836,0.961 3.302,3.005 4.367,3.693 0.531,0.35 1.084,0.648 1.645,0.936 0.565,0.267 1.138,0.522 1.719,0.728 0.58,0.222 1.167,0.388 1.755,0.55 0.588,0.146 1.179,0.288 1.766,0.38 1.182,0.219 2.348,0.305 3.512,0.365 1.156,0.029 2.302,0.009 3.432,-0.07 1.129,-0.08 2.238,-0.216 3.343,-0.374 l 0,0 2.196,-0.405 0.759,-2.181 1.521,-4.378 0.685,-1.967 c 2.178,-1.697 3.898,-4.022 4.809,-6.849 l 9.36,-29.104 C 78.07,14.922 73.688,8.65 66.815,4.661 z M 61.992,29.118 C 61.749,29.885 61.03,30.369 60.264,30.349 60.102,30.345 59.938,30.317 59.775,30.266 53.617,28.308 48.084,26.8 43.51,25.665 l 1.076,-3.369 c 4.6,1.144 10.128,2.657 16.26,4.605 0.929,0.295 1.442,1.288 1.146,2.217 z m 1.186,-4.7 c -0.284,0.703 -0.969,1.125 -1.684,1.106 -0.205,-0.006 -0.412,-0.047 -0.614,-0.128 -5.803,-2.336 -11.18,-3.9 -15.703,-4.95 l 1.082,-3.389 c 4.601,1.084 10.04,2.688 15.941,5.065 0.904,0.364 1.342,1.392 0.978,2.296 z m 1.175,-4.7 c -0.315,0.637 -0.964,0.999 -1.63,0.981 -0.249,-0.005 -0.499,-0.065 -0.735,-0.183 -5.454,-2.7 -10.673,-4.32 -15.145,-5.291 l 1.086,-3.403 c 4.625,1.036 9.987,2.74 15.624,5.531 0.874,0.434 1.231,1.492 0.8,2.365 z m 1.163,-4.703 c -0.339,0.568 -0.946,0.877 -1.563,0.86 C 63.66,15.867 63.365,15.787 63.097,15.626 57.987,12.579 52.927,10.9 48.511,10 l 0.93,-2.917 c 0.055,-0.171 0.074,-0.343 0.076,-0.514 4.665,0.987 9.979,2.798 15.388,6.026 0.837,0.501 1.11,1.583 0.611,2.42 z"
           id="path3561" />
      </g>
    </g>
    <g
       transform="translate(653.57142,441.64839)"
       id="g3815">
      <g
         id="Capa_33-7"
         style="display:none" />
      <g
         id="Capa_18">
        <g
           id="g3579">
          <g
             id="g3581">
            <circle
               cx="2.322"
               cy="27.583"
               r="2.322"
               id="circle3583" />
            <circle
               cx="7.9310002"
               cy="27.583"
               r="2.322"
               id="circle3585" />
            <circle
               cx="13.54"
               cy="27.583"
               r="2.322"
               id="circle3587" />
            <circle
               cx="19.149"
               cy="27.583"
               r="2.322"
               id="circle3589" />
            <circle
               cx="24.757999"
               cy="27.583"
               r="2.322"
               id="circle3591" />
            <circle
               cx="30.367001"
               cy="27.583"
               r="2.322"
               id="circle3593" />
            <circle
               cx="35.976002"
               cy="27.583"
               r="2.322"
               id="circle3595" />
            <circle
               cx="41.585999"
               cy="27.583"
               r="2.323"
               id="circle3597" />
            <circle
               cx="47.195999"
               cy="27.583"
               r="2.322"
               id="circle3599" />
            <circle
               cx="52.805"
               cy="27.583"
               r="2.3210001"
               id="circle3601" />
            <circle
               cx="58.412998"
               cy="27.583"
               r="2.322"
               id="circle3603" />
          </g>
          <g
             id="g3605">
            <circle
               cx="7.9310002"
               cy="33.187"
               r="2.322"
               id="circle3607" />
            <circle
               cx="13.54"
               cy="33.187"
               r="2.322"
               id="circle3609" />
            <circle
               cx="19.149"
               cy="33.187"
               r="2.322"
               id="circle3611" />
            <circle
               cx="24.757999"
               cy="33.187"
               r="2.322"
               id="circle3613" />
            <circle
               cx="30.367001"
               cy="33.187"
               r="2.322"
               id="circle3615" />
            <circle
               cx="35.976002"
               cy="33.187"
               r="2.322"
               id="circle3617" />
            <circle
               cx="41.585999"
               cy="33.187"
               r="2.323"
               id="circle3619" />
            <circle
               cx="47.195999"
               cy="33.187"
               r="2.322"
               id="circle3621" />
            <circle
               cx="52.805"
               cy="33.187"
               r="2.3210001"
               id="circle3623" />
            <circle
               cx="58.412998"
               cy="33.187"
               r="2.322"
               id="circle3625" />
            <circle
               cx="64.021004"
               cy="33.187"
               r="2.323"
               id="circle3627" />
            <circle
               cx="69.630997"
               cy="33.187"
               r="2.323"
               id="circle3629" />
            <circle
               cx="97.677002"
               cy="33.187"
               r="2.323"
               id="circle3631" />
          </g>
          <g
             id="g3633">
            <circle
               cx="7.9310002"
               cy="38.791"
               r="2.322"
               id="circle3635" />
            <circle
               cx="13.54"
               cy="38.791"
               r="2.322"
               id="circle3637" />
            <circle
               cx="19.149"
               cy="38.791"
               r="2.322"
               id="circle3639" />
            <circle
               cx="24.757999"
               cy="38.791"
               r="2.322"
               id="circle3641" />
            <circle
               cx="30.367001"
               cy="38.791"
               r="2.322"
               id="circle3643" />
            <circle
               cx="35.976002"
               cy="38.791"
               r="2.322"
               id="circle3645" />
            <circle
               cx="41.585999"
               cy="38.791"
               r="2.323"
               id="circle3647" />
            <circle
               cx="47.195999"
               cy="38.791"
               r="2.322"
               id="circle3649" />
            <circle
               cx="52.805"
               cy="38.791"
               r="2.3210001"
               id="circle3651" />
            <circle
               cx="58.412998"
               cy="38.791"
               r="2.322"
               id="circle3653" />
            <circle
               cx="64.021004"
               cy="38.791"
               r="2.323"
               id="circle3655" />
            <circle
               cx="69.630997"
               cy="38.791"
               r="2.323"
               id="circle3657" />
            <circle
               cx="86.459"
               cy="38.791"
               r="2.322"
               id="circle3659" />
            <circle
               cx="92.068001"
               cy="38.791"
               r="2.322"
               id="circle3661" />
            <circle
               cx="97.677002"
               cy="38.791"
               r="2.323"
               id="circle3663" />
          </g>
          <g
             id="g3665">
            <circle
               cx="7.9310002"
               cy="44.396"
               r="2.322"
               id="circle3667" />
            <circle
               cx="13.54"
               cy="44.396"
               r="2.322"
               id="circle3669" />
            <circle
               cx="19.149"
               cy="44.396"
               r="2.322"
               id="circle3671" />
            <circle
               cx="24.757999"
               cy="44.396"
               r="2.322"
               id="circle3673" />
            <circle
               cx="30.367001"
               cy="44.396"
               r="2.322"
               id="circle3675" />
            <circle
               cx="35.976002"
               cy="44.396"
               r="2.322"
               id="circle3677" />
            <circle
               cx="41.585999"
               cy="44.396"
               r="2.323"
               id="circle3679" />
            <circle
               cx="47.195999"
               cy="44.396"
               r="2.322"
               id="circle3681" />
            <circle
               cx="52.805"
               cy="44.396"
               r="2.3210001"
               id="circle3683" />
            <circle
               cx="58.412998"
               cy="44.396"
               r="2.322"
               id="circle3685" />
            <circle
               cx="64.021004"
               cy="44.396"
               r="2.323"
               id="circle3687" />
            <circle
               cx="69.630997"
               cy="44.396"
               r="2.323"
               id="circle3689" />
            <circle
               cx="75.240997"
               cy="44.396"
               r="2.322"
               id="circle3691" />
            <circle
               cx="80.849998"
               cy="44.396"
               r="2.322"
               id="circle3693" />
            <circle
               cx="86.459"
               cy="44.396"
               r="2.322"
               id="circle3695" />
            <circle
               cx="92.068001"
               cy="44.396"
               r="2.322"
               id="circle3697" />
          </g>
          <g
             id="g3699">
            <circle
               cx="7.9310002"
               cy="50"
               r="2.322"
               id="circle3701" />
            <circle
               cx="13.54"
               cy="50"
               r="2.322"
               id="circle3703" />
            <circle
               cx="19.149"
               cy="50"
               r="2.322"
               id="circle3705" />
            <circle
               cx="24.757999"
               cy="50"
               r="2.322"
               id="circle3707" />
            <circle
               cx="30.367001"
               cy="50"
               r="2.322"
               id="circle3709" />
            <circle
               cx="35.976002"
               cy="50"
               r="2.322"
               id="circle3711" />
            <circle
               cx="41.585999"
               cy="50"
               r="2.323"
               id="circle3713" />
            <circle
               cx="47.195999"
               cy="50"
               r="2.322"
               id="circle3715" />
            <circle
               cx="52.805"
               cy="50"
               r="2.3210001"
               id="circle3717" />
            <circle
               cx="58.412998"
               cy="50"
               r="2.322"
               id="circle3719" />
            <circle
               cx="64.021004"
               cy="50"
               r="2.323"
               id="circle3721" />
            <circle
               cx="69.630997"
               cy="50"
               r="2.323"
               id="circle3723" />
            <circle
               cx="75.240997"
               cy="50"
               r="2.322"
               id="circle3725" />
            <circle
               cx="80.849998"
               cy="50"
               r="2.322"
               id="circle3727" />
            <circle
               cx="86.459"
               cy="50"
               r="2.322"
               id="circle3729" />
          </g>
          <g
             id="g3731">
            <circle
               cx="13.54"
               cy="55.604"
               r="2.322"
               id="circle3733" />
            <circle
               cx="19.149"
               cy="55.604"
               r="2.322"
               id="circle3735" />
            <circle
               cx="24.757999"
               cy="55.604"
               r="2.322"
               id="circle3737" />
            <circle
               cx="30.367001"
               cy="55.604"
               r="2.322"
               id="circle3739" />
            <circle
               cx="35.976002"
               cy="55.604"
               r="2.322"
               id="circle3741" />
            <circle
               cx="41.585999"
               cy="55.604"
               r="2.323"
               id="circle3743" />
            <circle
               cx="47.195999"
               cy="55.604"
               r="2.322"
               id="circle3745" />
            <circle
               cx="52.805"
               cy="55.604"
               r="2.3210001"
               id="circle3747" />
            <circle
               cx="58.412998"
               cy="55.604"
               r="2.322"
               id="circle3749" />
            <circle
               cx="64.021004"
               cy="55.604"
               r="2.323"
               id="circle3751" />
            <circle
               cx="69.630997"
               cy="55.604"
               r="2.323"
               id="circle3753" />
            <circle
               cx="75.240997"
               cy="55.604"
               r="2.322"
               id="circle3755" />
            <circle
               cx="80.849998"
               cy="55.604"
               r="2.322"
               id="circle3757" />
            <circle
               cx="86.459"
               cy="55.604"
               r="2.322"
               id="circle3759" />
          </g>
          <g
             id="g3761">
            <circle
               cx="19.149"
               cy="61.207001"
               r="2.322"
               id="circle3763" />
            <circle
               cx="24.757999"
               cy="61.207001"
               r="2.322"
               id="circle3765" />
            <circle
               cx="30.367001"
               cy="61.207001"
               r="2.322"
               id="circle3767" />
            <circle
               cx="35.976002"
               cy="61.207001"
               r="2.322"
               id="circle3769" />
            <circle
               cx="41.585999"
               cy="61.207001"
               r="2.323"
               id="circle3771" />
            <circle
               cx="47.195999"
               cy="61.207001"
               r="2.322"
               id="circle3773" />
            <circle
               cx="52.805"
               cy="61.207001"
               r="2.3210001"
               id="circle3775" />
            <circle
               cx="58.412998"
               cy="61.207001"
               r="2.322"
               id="circle3777" />
            <circle
               cx="64.021004"
               cy="61.207001"
               r="2.323"
               id="circle3779" />
            <circle
               cx="69.630997"
               cy="61.207001"
               r="2.323"
               id="circle3781" />
            <circle
               cx="75.240997"
               cy="61.207001"
               r="2.322"
               id="circle3783" />
            <circle
               cx="80.849998"
               cy="61.207001"
               r="2.322"
               id="circle3785" />
          </g>
          <g
             id="g3787">
            <circle
               cx="35.976002"
               cy="66.811996"
               r="2.322"
               id="circle3789" />
            <circle
               cx="41.585999"
               cy="66.811996"
               r="2.323"
               id="circle3791" />
            <circle
               cx="47.195999"
               cy="66.811996"
               r="2.322"
               id="circle3793" />
            <circle
               cx="52.805"
               cy="66.811996"
               r="2.3210001"
               id="circle3795" />
            <circle
               cx="58.412998"
               cy="66.811996"
               r="2.322"
               id="circle3797" />
            <circle
               cx="64.021004"
               cy="66.811996"
               r="2.323"
               id="circle3799" />
            <circle
               cx="75.240997"
               cy="66.811996"
               r="2.322"
               id="circle3801" />
          </g>
          <g
             id="g3803">
            <circle
               cx="47.195999"
               cy="72.417"
               r="2.322"
               id="circle3805" />
            <circle
               cx="75.240997"
               cy="72.417"
               r="2.322"
               id="circle3807" />
          </g>
        </g>
      </g>
    </g>
    <text
       transform="translate(-5.9244691,12.474619)"
       id="text3957"
       xml:space="preserve"
       style="font-size:40px;font-style:normal;font-variant:normal;font-weight:500;font-stretch:normal;line-height:125%;letter-spacing:0px;word-spacing:0px;fill:#000000;fill-opacity:1;stroke:none;font-family:Inconsolata-g;-inkscape-font-specification:Inconsolata-g Medium"><textPath
         xlink:href="#path3974"
         id="textPath3976"><tspan
   dx="38.398121"
   id="tspan3959">That</tspan></textPath></text>
    <path
       d="m 747.24272,360.11942 c 0,0 14.59219,-18.60855 83.14867,-18.37167 65.55291,0.22649 73.79442,16.95846 73.79442,16.95846"
       id="path3974"
       style="fill:none;stroke:none" />
    <path
       d="m 739.77221,628.20471 c 0,0 16.1142,18.54881 91.82131,18.31269 72.39025,-0.22576 81.49137,-16.90402 81.49137,-16.90402"
       id="path3974-4"
       style="fill:none;stroke:none" />
    <text
       transform="translate(-2.8765412,6.4285715)"
       id="text4769"
       xml:space="preserve"
       style="font-size:40px;font-style:normal;font-variant:normal;font-weight:500;font-stretch:normal;line-height:125%;letter-spacing:0px;word-spacing:0px;fill:#000000;fill-opacity:1;stroke:none;font-family:Inconsolata-g;-inkscape-font-specification:Inconsolata-g Medium"><textPath
         xlink:href="#path3974-4"
         id="textPath4779"><tspan
   dx="5.7142859"
   id="tspan4771">Podcast</tspan></textPath></text>
    <text
       x="145"
       y="60.714287"
       transform="translate(638.57141,306.64789)"
       id="text4783"
       xml:space="preserve"
       style="font-size:40px;font-style:normal;font-variant:normal;font-weight:500;font-stretch:normal;line-height:125%;letter-spacing:0px;word-spacing:0px;fill:#000000;fill-opacity:1;stroke:none;font-family:Inconsolata-g;-inkscape-font-specification:Inconsolata-g Medium"><tspan
         x="145"
         y="60.714287"
         id="tspan4785" /></text>
  </g>
</svg>
